<?xml version="1.0" encoding="UTF-8"?>
<svg class="" width="512" height="512" enable-background="new 0 0 512 512" version="1.1" viewBox="0 0 479.06 479.06" xml:space="preserve" xmlns="http://www.w3.org/2000/svg"><path class="" d="m434.15 59.882h-389.23c-24.766 0-44.912 20.146-44.912 44.912v269.47c0 24.766 20.146 44.912 44.912 44.912h389.23c24.766 0 44.912-20.146 44.912-44.912v-269.47c0-24.766-20.146-44.912-44.912-44.912zm0 29.941c2.034 0 3.969 0.422 5.738 1.159l-200.36 173.65-200.36-173.65c1.769-0.736 3.704-1.159 5.738-1.159zm0 299.41h-389.23c-8.26 0-14.971-6.71-14.971-14.971v-251.65l199.78 173.14c2.822 2.441 6.316 3.655 9.81 3.655s6.988-1.213 9.81-3.655l199.78-173.14v251.65c-1e-3 8.26-6.711 14.97-14.971 14.97z" fill="#ffe3d8" style="" data-original="#000000" xmlns="http://www.w3.org/2000/svg"/></svg>
